<?xml version="1.0" encoding="utf-8"?>
<!-- Generator: Adobe Illustrator 22.0.1, SVG Export Plug-In . SVG Version: 6.00 Build 0)  -->
<svg version="1.1" id="Layer_1" xmlns="http://www.w3.org/2000/svg" xmlns:xlink="http://www.w3.org/1999/xlink" x="0px" y="0px"
	 viewBox="0 0 1080 1080" style="enable-background:new 0 0 1080 1080;" xml:space="preserve">
<style type="text/css">
	.st0{fill:none;stroke:#888888;stroke-opacity:0.3;}
	.st1{fill:none;stroke:#FF0000;stroke-width:1.2;stroke-opacity:0.7;}
	.st2{fill:none;stroke:#FF0000;stroke-width:2;}
	.st3{fill:none;stroke:#666666;stroke-width:1.5;}
	.st4{font-family:'ArialMT';}
	.st5{font-size:12px;}
	.st6{opacity:0.9;enable-background:new    ;}
</style>
<g transform="translate(540,540)">
	<g>
		<path class="st0" d="M-9.5-65.4l-43.7-300.8"/>
		<path class="st0" d="M-28.4-138.6l-45.8-223.9"/>
		<path class="st0" d="M121.6,38l231.6,72.3"/>
		<path class="st0" d="M4.6-159.9l6.1-210"/>
		<path class="st0" d="M17.4-200.2L32-368.6"/>
		<path class="st0" d="M49.4-340.1l3.8-26"/>
		<path class="st0" d="M78.1-146.4l96-180.1"/>
		<path class="st0" d="M29.6-144.8l44.5-217.7"/>
		<path class="st0" d="M141.4-306.4L155-336"/>
		<path class="st0" d="M42.1-158.5l52.8-199.1"/>
		<path class="st0" d="M59.1-180.2l56.2-171.3"/>
		<path class="st0" d="M119.5-303.8l15.9-40.5"/>
		<path class="st0" d="M135.9-222.9l56.7-93"/>
		<path class="st0" d="M203.9-294.7l6.6-9.5"/>
		<path class="st0" d="M147.6-189l80.1-102.6"/>
		<path class="st0" d="M195.6-222.8l48.5-55.3"/>
		<path class="st0" d="M100.6-102.1l159.1-161.4"/>
		<path class="st0" d="M136.5-123.4l137.9-124.7"/>
		<path class="st0" d="M150.7-121.2l137.6-110.6"/>
		<path class="st0" d="M149.9-71.8l183.8-88"/>
		<path class="st0" d="M152.6-108.9l148.6-106"/>
		<path class="st0" d="M227.3-143.1l85.8-54"/>
		<path class="st0" d="M243.4-134.3l80.6-44.5"/>
		<path class="st0" d="M220.4-90.4l121.9-50"/>
		<path class="st0" d="M181.7-62.5l168.1-57.9"/>
		<path class="st0" d="M147.4-41.4L356.2-100"/>
		<path class="st0" d="M256.8-56.4l104.6-23"/>
		<path class="st0" d="M146.5-23.4l218.8-35"/>
		<path class="st0" d="M234.5-23.7l133.6-13.5"/>
		<path class="st0" d="M162.6-7l207-9"/>
		<path class="st0" d="M238.8,3.4L370,5.3"/>
		<path class="st0" d="M288.2,72.1L359,89.7"/>
		<path class="st0" d="M245.4,46.5l118.1,22.4"/>
		<path class="st0" d="M261.9,18.9L369,26.6"/>
		<path class="st0" d="M366.9,47.9L366.9,47.9"/>
		<path class="st0" d="M218.4,146.5l88.9,59.6"/>
		<path class="st0" d="M141.2,53.2l205.1,77.2"/>
		<path class="st0" d="M142.8,63.4l195.4,86.8"/>
		<path class="st0" d="M179.8,92.6l149.2,76.8"/>
		<path class="st0" d="M224.8,132.7l93.8,55.4"/>
		<path class="st0" d="M98.7,172.9l84.7,148.4"/>
		<path class="st0" d="M117.2,141.5L236,285"/>
		<path class="st0" d="M141.5,107.2l153.4,116.3"/>
		<path class="st0" d="M132.8,142.8L252,270.9"/>
		<path class="st0" d="M144.8,123.5l136.7,116.6"/>
		<path class="st0" d="M140.6,134.7l126.6,121.2"/>
		<path class="st0" d="M105.2,143l114.1,155.1"/>
		<path class="st0" d="M172.3,265.1l29.3,45.1"/>
		<path class="st0" d="M71.6,144.1l93,187.3"/>
		<path class="st0" d="M57.2,193l48,161.8"/>
		<path class="st0" d="M63.4,148.6l81.9,191.7"/>
		<path class="st0" d="M59.3,164.6l66.1,183.5"/>
		<path class="st0" d="M54.2,231l30.3,129.2"/>
		<path class="st0" d="M29.6,169.3l34.1,195.2"/>
		<path class="st0" d="M19.6,168.8l23,198.7"/>
		<path class="st0" d="M17.6,304.4l3.8,65"/>
		<path class="st0" d="M0,138v232"/>
		<path class="st0" d="M-15.9,275.9l-5.4,93.4"/>
		<path class="st0" d="M-38.6,333l-4,34.5"/>
		<path class="st0" d="M-35.7,120.3l-69.5,234.4"/>
		<path class="st0" d="M-23.7,135.7l-40,228.8"/>
		<path class="st0" d="M-33,140.5l-51.6,219.7"/>
		<path class="st0" d="M-42,116.6l-83.4,231.5"/>
		<path class="st0" d="M-157.1,275.1l-26.4,46.2"/>
		<path class="st0" d="M-62.3,146l-83,194.3"/>
		<path class="st0" d="M-149.6,301.1l-15,30.3"/>
		<path class="st0" d="M-97,92.9l-170.2,163"/>
		<path class="st0" d="M-75.8,116.5l-125.9,193.7"/>
		<path class="st0" d="M-157.8,214.6l-61.4,83.5"/>
		<path class="st0" d="M-129,155.7L-236,285"/>
		<path class="st0" d="M-163.1,175.3l-88.9,95.6"/>
		<path class="st0" d="M-236.7,201.9l-44.8,38.2"/>
		<path class="st0" d="M-263.2,199.5l-31.7,24"/>
		<path class="st0" d="M-215.2,144.4l-92,61.7"/>
		<path class="st0" d="M-267.4,157.8l-51.2,30.2"/>
		<path class="st0" d="M-259.8,97.9l-86.4,32.6"/>
		<path class="st0" d="M-216.2,111.4l-112.7,58"/>
		<path class="st0" d="M-322.4,143.2l-15.7,7"/>
		<path class="st0" d="M-147.3,27.9l-216.2,41"/>
		<path class="st0" d="M-162.5,50.8l-190.6,59.5"/>
		<path class="st0" d="M-345.6,86.4l-13.4,3.3"/>
		<path class="st0" d="M-155.8,20.3l-211.1,27.5"/>
		<path class="st0" d="M-332.2,24l-36.8,2.7"/>
		<path class="st0" d="M-257,3.7l-113,1.6"/>
		<path class="st0" d="M-335.6-14.5l-34.1-1.5"/>
		<path class="st0" d="M-186.2-40.9l-175.2-38.5"/>
		<path class="st0" d="M-123.6-12.5l-244.5-24.7"/>
		<path class="st0" d="M-109.4-17.5l-255.9-40.9"/>
		<path class="st0" d="M-95.2-26.7l-261-73.3"/>
		<path class="st0" d="M-94.4-32.5l-255.4-87.9"/>
		<path class="st0" d="M-45.7-58.5l-182-233.2"/>
		<path class="st1" d="M-57.2-65.2L-244.1-278"/>
		<path class="st1" d="M-116.7-47.9l-225.6-92.5"/>
		<path class="st0" d="M-91.8-44l-241.9-115.9"/>
		<path class="st1" d="M-97-53.6l-226.9-125.3"/>
		<path class="st0" d="M-158.9-100.1l-154.2-97.1"/>
		<path class="st0" d="M-112.1-80l-189.1-134.9"/>
		<path class="st1" d="M-75.1-60.4l-213.2-171.5"/>
		<path class="st1" d="M-88.7-80.2l-185.8-167.9"/>
		<path class="st0" d="M-131.2-133.1l-128.6-130.4"/>
		<path class="st0" d="M-38.8-56.1l-171.7-248.2"/>
		<path class="st0" d="M-100.6-164.9l-92.1-151"/>
		<path class="st0" d="M-59.2-111l-114.9-215.4"/>
		<path class="st0" d="M-98.1-212.6L-155-336"/>
		<path class="st0" d="M-19.1-48.6l-116.3-295.7"/>
		<path class="st0" d="M-46.5-141.6l-68.9-210"/>
		<path class="st0" d="M-34.2-128.9l-60.7-228.7"/>
		<path class="st0" d="M-3.1-36.2L-32-368.6"/>
		<path class="st0" d="M-0.5-16.3l-10.2-353.6"/>
	</g>
	<g>
		<path class="st2" d="M0,0L0,0l-2-7.9"/>
		<path class="st3" d="M0,0L0,0l0-0.3"/>
		<path class="st2" d="M-2-7.9c-0.3,0.1-0.5,0.2-0.8,0.3l-4.3-11.8"/>
		<path class="st3" d="M-2-7.9C-1.7-8-1.4-8-1.2-8.1l-8.3-57.3"/>
		<path class="st2" d="M-7.1-19.4c-1,0.4-1.9,0.8-2.8,1.3l-3-5.5"/>
		<path class="st3" d="M-7.1-19.4c1-0.4,2-0.6,3-0.9l-24.2-118.4"/>
		<path class="st2" d="M-13-23.6c-1.4,0.7-2.6,1.6-3.9,2.6l-3.7-4.6"/>
		<path class="st3" d="M-13-23.6c1.4-0.7,2.8-1.4,4.2-1.9l-2.4-7.1"/>
		<path class="st2" d="M-20.6-25.6c-1.8,1.5-3.5,3.1-5,5l-5.6-4.5"/>
		<path class="st3" d="M-20.6-25.6c1.8-1.5,3.8-2.7,5.9-3.8l-8.9-17.9"/>
		<path class="st2" d="M-31.2-25.2c-2.6,3.3-4.8,6.9-6.3,10.9l-6.7-2.6"/>
		<path class="st3" d="M-31.2-25.2c2.6-3.3,5.8-6.1,9.3-8.4l-6.5-10"/>
		<path class="st3" d="M-44.2-16.9c-2.6,6.7-3.6,13.9-2.9,21L-57.7,5"/>
		<path class="st2" d="M-44.2-16.9c2.6-6.7,6.6-12.7,11.8-17.6l-11.1-11.9"/>
		<path class="st3" d="M-57.7,5c0.7,7.5,2.8,14.8,6.2,21.5l-7.5,3.9"/>
		<path class="st3" d="M-57.7,5c-0.7-7.5,0.2-15.1,2.4-22.3l-14.6-4.6"/>
		<path class="st3" d="M-59,30.5c5,9.8,12.5,18.1,21.5,24.3l-3,4.4"/>
		<path class="st3" d="M-59,30.5c-5-9.8-7.6-20.7-7.4-31.7l-11-0.2"/>
		<path class="st3" d="M-40.4,59.2c11.3,7.7,24.5,12,38.2,12.5l-0.2,7.8"/>
		<path class="st3" d="M-40.4,59.2c-11.3-7.7-20.1-18.5-25.5-31.1l-36.3,15.5"/>
		<path class="st3" d="M-2.5,79.5c19.6,0.6,38.7-6,53.7-18.7l3.2,3.8"/>
		<path class="st3" d="M-2.5,79.5C-22,78.9-40.7,71-54.9,57.5l-4.8,5"/>
		<path class="st3" d="M54.5,64.6c15.6-13.1,25.9-31.4,29-51.5l8.7,1.4"/>
		<path class="st3" d="M54.5,64.6C38.9,77.7,19.1,84.8-1.2,84.5L-1.3,93"/>
		<path class="st3" d="M92.1,14.5C93.9,3.4,93.6-8,91.3-19.1l8.9-1.9"/>
		<path class="st3" d="M92.1,14.5C90.4,25.7,86.6,36.4,81,46.3l11.7,6.7"/>
		<path class="st3" d="M100.2-20.9c-3.6-17.1-11.4-33-22.9-46.1l5.2-4.5"/>
		<path class="st3" d="M100.2-20.9c3.6,17.1,2.7,34.8-2.5,51.4l23.9,7.5"/>
		<path class="st3" d="M82.5-71.6C72.4-83.3,59.8-92.7,45.7-99.2l2.5-5.4"/>
		<path class="st3" d="M82.5-71.6c10.2,11.7,17.7,25.5,22.2,40.4l8.7-2.6"/>
		<path class="st3" d="M48.2-104.6c-7.1-3.3-14.4-5.8-22-7.6l1.6-6.7"/>
		<path class="st3" d="M48.2-104.6c7.1,3.3,13.8,7.2,20,11.8l6.1-8.3"/>
		<path class="st3" d="M27.8-118.9c-6.2-1.5-12.6-2.4-19-2.9l0.9-12.8"/>
		<path class="st3" d="M27.8-118.9c6.2,1.5,12.4,3.4,18.3,5.8l3-7.2"/>
		<path class="st3" d="M9.7-134.6c-1.9-0.1-3.9-0.2-5.8-0.3l0.7-25"/>
		<path class="st3" d="M9.7-134.6c1.9,0.1,3.9,0.3,5.8,0.5l2-17.4"/>
		<path class="st3" d="M17.5-151.4c-1.5-0.2-2.9-0.3-4.4-0.4l4.2-48.3"/>
		<path class="st3" d="M17.5-151.4c1.5,0.2,2.9,0.4,4.4,0.6l27.5-189.3"/>
		<path class="st3" d="M49.1-120.3c-4.1-1.7-8.3-3.1-12.6-4.4l2.3-7.8"/>
		<path class="st3" d="M49.1-120.3c4.1,1.7,8.1,3.6,12.1,5.7l16.9-31.8"/>
		<path class="st3" d="M38.8-132.5c-3.7-1.1-7.4-2-11.1-2.8l1.9-9.5"/>
		<path class="st3" d="M38.8-132.5c3.7,1.1,7.3,2.3,10.8,3.7l2.7-7"/>
		<path class="st3" d="M52.3-135.8c-2.9-1.1-5.9-2.2-8.9-3.1l2.6-8.4"/>
		<path class="st3" d="M52.3-135.8c2.9,1.1,5.8,2.4,8.7,3.7l80.4-174.2"/>
		<path class="st3" d="M46-147.3c-2.1-0.7-4.3-1.3-6.4-1.9l2.5-9.4"/>
		<path class="st3" d="M46-147.3c2.1,0.7,4.2,1.4,6.3,2.1l5.4-15"/>
		<path class="st3" d="M57.7-160.2c-1.5-0.6-3.1-1.1-4.6-1.6l6.1-18.4"/>
		<path class="st3" d="M57.7-160.2c1.5,0.6,3.1,1.1,4.6,1.7l57.2-145.4"/>
		<path class="st3" d="M74.4-101.1c-1.9-1.4-3.9-2.8-5.9-4.1l15.7-24.1"/>
		<path class="st3" d="M74.4-101.1c1.9,1.4,3.8,2.9,5.7,4.5l9.8-11.8"/>
		<path class="st3" d="M84.1-129.4c-1.2-0.8-2.5-1.6-3.8-2.4l55.6-91.1"/>
		<path class="st3" d="M84.1-129.4c1.2,0.8,2.5,1.6,3.7,2.5l116.1-167.8"/>
		<path class="st3" d="M89.9-108.5c-1-0.9-2.1-1.7-3.2-2.5l60.9-78"/>
		<path class="st3" d="M89.9-108.5c1,0.9,2.1,1.7,3.1,2.6l102.6-116.9"/>
		<path class="st3" d="M113.4-33.8c-2.7-9.1-6.5-17.9-11.3-26.1l8.4-4.9"/>
		<path class="st3" d="M113.4-33.8c2.7,9.1,4.3,18.5,4.8,28l7.2-0.4"/>
		<path class="st3" d="M110.4-64.8c-3.7-6.3-7.9-12.2-12.6-17.8l4.8-4"/>
		<path class="st3" d="M110.4-64.8c3.7,6.3,6.8,12.8,9.4,19.6l15.2-5.7"/>
		<path class="st3" d="M102.6-86.6c-2.7-3.1-5.4-6.2-8.4-9.1l6.4-6.5"/>
		<path class="st3" d="M102.6-86.6c2.7,3.1,5.2,6.4,7.5,9.8l5.4-3.8"/>
		<path class="st3" d="M115.5-80.6c-2.6-3.7-5.4-7.4-8.4-10.8l7.6-6.5"/>
		<path class="st3" d="M115.5-80.6c2.6,3.7,5,7.6,7.3,11.6l6.6-3.7"/>
		<path class="st3" d="M114.8-97.9c-0.9-1.1-1.9-2.2-2.9-3.3l24.6-22.2"/>
		<path class="st3" d="M114.8-97.9c0.9,1.1,1.9,2.2,2.8,3.3l33.2-26.7"/>
		<path class="st3" d="M129.4-72.6c-1.6-2.8-3.2-5.5-5-8.2l6.3-4.1"/>
		<path class="st3" d="M129.4-72.6c1.6,2.8,3,5.6,4.4,8.5l16.1-7.7"/>
		<path class="st3" d="M130.7-85c-1.2-1.9-2.5-3.7-3.8-5.6l25.7-18.4"/>
		<path class="st3" d="M130.7-85c1.2,1.9,2.4,3.8,3.6,5.7l13.7-8.1"/>
		<path class="st3" d="M148-87.4c-0.8-1.4-1.7-2.8-2.6-4.2l81.8-51.5"/>
		<path class="st3" d="M148-87.4c0.8,1.4,1.7,2.9,2.5,4.3l92.9-51.3"/>
		<path class="st3" d="M135-50.9c-0.5-1.3-1-2.6-1.5-3.9l86.9-35.6"/>
		<path class="st3" d="M135-50.9c0.5,1.3,1,2.6,1.4,3.9l45.3-15.6"/>
		<path class="st3" d="M125.4-6.1c-0.3-5.8-1-11.6-2-17.3l5.8-1.1"/>
		<path class="st3" d="M125.4-6.1c0.3,5.8,0.2,11.6-0.4,17.4l8.1,0.7"/>
		<path class="st3" d="M129.2-24.5c-0.5-2.5-1-5-1.6-7.4l10.3-2.6"/>
		<path class="st3" d="M129.2-24.5c0.5,2.5,0.9,5,1.2,7.5l9.3-1.2"/>
		<path class="st3" d="M137.9-34.5c-0.3-1.3-0.7-2.6-1.1-4l10.5-3"/>
		<path class="st3" d="M137.9-34.5c0.3,1.3,0.6,2.7,0.9,4l118-25.9"/>
		<path class="st3" d="M139.7-18.2c-0.2-1.3-0.4-2.7-0.6-4l7.4-1.2"/>
		<path class="st3" d="M139.7-18.2c0.2,1.3,0.3,2.7,0.5,4l94.4-9.6"/>
		<path class="st3" d="M133.1,12c0.4-4.6,0.6-9.3,0.5-13.9l9.1-0.1"/>
		<path class="st3" d="M133.1,12c-0.4,4.6-1.1,9.2-2,13.8l18.1,3.6"/>
		<path class="st3" d="M142.7-2.1c0-1.4-0.1-2.7-0.1-4.1l20-0.9"/>
		<path class="st3" d="M142.7-2.1c0,1.4,0,2.7,0,4.1l96.1,1.4"/>
		<path class="st3" d="M149.3,29.4c0.5-2.5,0.9-5,1.3-7.6l14.6,2.1"/>
		<path class="st3" d="M149.3,29.4c-0.5,2.5-1.1,5-1.7,7.5l140.6,35.2"/>
		<path class="st3" d="M165.1,24c0.3-2.4,0.6-4.8,0.9-7.2l19.3,2"/>
		<path class="st3" d="M165.1,24c-0.3,2.4-0.7,4.8-1.2,7.1l81.5,15.4"/>
		<path class="st3" d="M185.3,18.8c0.2-1.8,0.3-3.6,0.5-5.3l76.2,5.5"/>
		<path class="st3" d="M185.3,18.8c-0.2,1.8-0.4,3.6-0.6,5.3l182.2,23.8"/>
		<path class="st3" d="M92.7,52.9c1.3-2.2,2.5-4.5,3.6-6.8l9,4.3"/>
		<path class="st3" d="M92.7,52.9c-1.3,2.2-2.6,4.4-4.1,6.5l129.7,87"/>
		<path class="st3" d="M105.3,50.4c1-2,1.9-4.1,2.7-6.2l9.6,3.9"/>
		<path class="st3" d="M105.3,50.4c-1,2-2,4-3.1,6l15.1,8.3"/>
		<path class="st3" d="M117.6,48.2c0.5-1.1,0.9-2.3,1.3-3.4l22.3,8.4"/>
		<path class="st3" d="M117.6,48.2c-0.5,1.1-0.9,2.3-1.4,3.4l26.6,11.8"/>
		<path class="st3" d="M117.3,64.7c0.6-1.1,1.2-2.3,1.8-3.4l60.7,31.2"/>
		<path class="st3" d="M117.3,64.7c-0.6,1.1-1.3,2.2-1.9,3.4l109.4,64.6"/>
		<path class="st3" d="M-1.3,93C5.9,93.1,13,92.3,20,90.8l2.7,12.2"/>
		<path class="st3" d="M-1.3,93c-7.2-0.1-14.3-1-21.2-2.8l-2.2,8.8"/>
		<path class="st3" d="M22.7,103c8.9-2,17.6-5.1,25.7-9.3l5.3,10.3"/>
		<path class="st3" d="M22.7,103c-8.9,2-18.1,2.8-27.3,2.4l-0.5,12.2"/>
		<path class="st3" d="M53.7,104c4.4-2.3,8.7-4.8,12.8-7.7l4.4,6.4"/>
		<path class="st3" d="M53.7,104c-4.4,2.3-9,4.3-13.7,6l2.5,6.8"/>
		<path class="st3" d="M71,102.8c2.9-2,5.8-4.2,8.5-6.4l4.4,5.3"/>
		<path class="st3" d="M71,102.8c-2.9,2-5.9,3.9-9,5.7l36.8,64.4"/>
		<path class="st3" d="M83.9,101.6c2.9-2.4,5.6-4.9,8.3-7.5l9.6,9.8"/>
		<path class="st3" d="M83.9,101.6c-2.9,2.4-5.8,4.6-8.9,6.7l12.1,17.5"/>
		<path class="st3" d="M101.8,104c2.9-2.8,5.6-5.7,8.3-8.8l7.1,6.1"/>
		<path class="st3" d="M101.8,104c-2.9,2.8-5.9,5.5-9,8.1l24.4,29.4"/>
		<path class="st3" d="M117.2,101.4c2.2-2.5,4.3-5.1,6.3-7.8l18,13.6"/>
		<path class="st3" d="M117.2,101.4c-2.2,2.5-4.5,5-6.8,7.4l7.6,7.5"/>
		<path class="st3" d="M117.9,116.2c1.7-1.7,3.3-3.4,4.9-5.2l8.1,7.3"/>
		<path class="st3" d="M117.9,116.2c-1.7,1.7-3.4,3.4-5.1,5l20,21.5"/>
		<path class="st3" d="M131,118.4c1.1-1.3,2.3-2.5,3.4-3.8l10.5,8.9"/>
		<path class="st3" d="M131,118.4c-1.1,1.3-2.3,2.5-3.5,3.7l13.1,12.6"/>
		<path class="st3" d="M87.1,125.9c1.2-0.8,2.4-1.7,3.6-2.6l14.5,19.7"/>
		<path class="st3" d="M87.1,125.9c-1.2,0.8-2.4,1.7-3.7,2.5l88.9,136.7"/>
		<path class="st3" d="M42.6,116.8c4.3-1.6,8.6-3.4,12.7-5.5l16.3,32.8"/>
		<path class="st3" d="M42.6,116.8c-4.3,1.6-8.8,2.9-13.3,4l1.5,6.4"/>
		<path class="st3" d="M30.8,127.2c4-1,7.9-2.1,11.8-3.4l2.2,6.5"/>
		<path class="st3" d="M30.8,127.2c-4,1-8,1.7-12,2.3l1.3,9.3"/>
		<path class="st3" d="M44.8,130.2c1.9-0.6,3.7-1.3,5.6-2.1l3.1,7.9"/>
		<path class="st3" d="M44.8,130.2c-1.9,0.6-3.8,1.3-5.7,1.8L57.2,193"/>
		<path class="st3" d="M53.5,136c1.3-0.5,2.6-1,3.9-1.6l6,14.1"/>
		<path class="st3" d="M53.5,136c-1.3,0.5-2.6,1-3.9,1.5l9.8,27.1"/>
		<path class="st3" d="M20.1,138.8c2.7-0.4,5.3-0.9,8-1.4l2,9.8"/>
		<path class="st3" d="M20.1,138.8c-2.7,0.4-5.3,0.7-8,0.9l1,11.9"/>
		<path class="st3" d="M30.1,147.2c1.4-0.3,2.8-0.6,4.2-0.9L54.2,231"/>
		<path class="st3" d="M30.1,147.2c-1.4,0.3-2.8,0.6-4.3,0.8l3.7,21.3"/>
		<path class="st3" d="M13.1,151.6c1.5-0.1,2.9-0.3,4.4-0.4l2.1,17.7"/>
		<path class="st3" d="M13.1,151.6c-1.5,0.1-2.9,0.2-4.4,0.3l8.8,152.5"/>
		<path class="st3" d="M-5.1,117.6c1.7,0.1,3.4,0.1,5.1,0.1V138"/>
		<path class="st3" d="M-5.1,117.6c-1.7-0.1-3.4-0.2-5.1-0.3l-2.2,25.9"/>
		<path class="st3" d="M-12.4,143.1c1.4,0.1,2.8,0.2,4.1,0.3l-7.6,132.5"/>
		<path class="st3" d="M-12.4,143.1c-1.4-0.1-2.7-0.3-4.1-0.4l-22,190.3"/>
		<path class="st3" d="M-24.8,99c1.4,0.4,2.9,0.7,4.3,1l-3.7,18.1"/>
		<path class="st3" d="M-24.8,99c-1.4-0.4-2.8-0.7-4.3-1.2l-6.7,22.5"/>
		<path class="st3" d="M-24.1,118.1c1.1,0.2,2.3,0.4,3.4,0.6l-3,17"/>
		<path class="st3" d="M-24.1,118.1c-1.1-0.2-2.3-0.5-3.4-0.7l-5.4,23.2"/>
		<path class="st3" d="M-59.6,62.5c3.9,3.8,8.2,7.1,12.8,10.1l-4.8,7.4"/>
		<path class="st3" d="M-59.6,62.5c-3.9-3.8-7.5-7.9-10.7-12.3l-11,7.8"/>
		<path class="st3" d="M-51.6,80c4.3,2.8,8.9,5.2,13.6,7.3l-6.2,14.3"/>
		<path class="st3" d="M-51.6,80c-4.3-2.8-8.4-5.9-12.2-9.4l-4.8,5.3"/>
		<path class="st3" d="M-44.2,101.6c2.2,1,4.4,1.8,6.7,2.7l-4.5,12.4"/>
		<path class="st3" d="M-44.2,101.6c-2.2-1-4.4-2-6.5-3.1l-6.3,12.2"/>
		<path class="st3" d="M-57,110.8c1.6,0.8,3.2,1.6,4.8,2.4l-7.7,16.8"/>
		<path class="st3" d="M-57,110.8c-1.6-0.8-3.2-1.7-4.7-2.6l-95.3,166.9"/>
		<path class="st3" d="M-59.9,129.9c1.2,0.6,2.5,1.1,3.8,1.7l-6.1,14.4"/>
		<path class="st3" d="M-59.9,129.9c-1.2-0.6-2.5-1.2-3.7-1.8l-85.9,173"/>
		<path class="st3" d="M-68.6,75.9c1.8,1.6,3.7,3.2,5.6,4.7l-5.4,6.9"/>
		<path class="st3" d="M-68.6,75.9c-1.8-1.6-3.6-3.4-5.3-5.1L-97,92.9"/>
		<path class="st3" d="M-68.4,87.6c1.7,1.3,3.4,2.6,5.2,3.8l-5,7.2"/>
		<path class="st3" d="M-68.4,87.6c-1.7-1.3-3.3-2.7-4.9-4.1l-11.2,12.7"/>
		<path class="st3" d="M-68.2,98.6c0.9,0.7,1.9,1.3,2.9,1.9l-10.4,16"/>
		<path class="st3" d="M-68.2,98.6c-0.9-0.7-1.9-1.3-2.8-2l-86.8,118"/>
		<path class="st3" d="M-84.5,96.2c0.9,0.8,1.9,1.6,2.8,2.4l-47.3,57.1"/>
		<path class="st3" d="M-84.5,96.2c-0.9-0.8-1.8-1.6-2.7-2.5l-75.9,81.6"/>
		<path class="st3" d="M-81.3,58c1.1,1.6,2.3,3.1,3.5,4.6l-25.6,20.6"/>
		<path class="st3" d="M-81.3,58c-1.1-1.6-2.2-3.2-3.2-4.8l-18.8,11.8"/>
		<path class="st3" d="M-103.4,83.2c0.8,1,1.6,2,2.4,2.9l-135.8,115.8"/>
		<path class="st3" d="M-103.4,83.2c-0.8-1-1.6-2-2.4-3l-157.4,119.3"/>
		<path class="st3" d="M-103.3,65.1c0.6,1,1.3,2,1.9,2.9l-113.9,76.4"/>
		<path class="st3" d="M-103.3,65.1c-0.6-1-1.2-2-1.8-3l-162.3,95.8"/>
		<path class="st3" d="M-102.2,43.6c0.6,1.5,1.3,2.9,2,4.4l-21.5,10.3"/>
		<path class="st3" d="M-102.2,43.6c-0.6-1.5-1.2-3-1.8-4.5l-155.8,58.7"/>
		<path class="st3" d="M-121.7,58.3c0.6,1.2,1.1,2.3,1.7,3.5l-96.3,49.6"/>
		<path class="st3" d="M-121.7,58.3c-0.6-1.2-1.1-2.3-1.6-3.5l-199.1,88.4"/>
		<path class="st3" d="M-77.3-1.4c-0.1,4,0.2,8,0.7,11.9l-14.3,2"/>
		<path class="st3" d="M-77.3-1.4c0.1-4,0.5-8,1.1-11.9l-7.4-1.3"/>
		<path class="st3" d="M-90.9,12.5c0.4,2.8,0.9,5.7,1.6,8.4l-9.1,2.1"/>
		<path class="st3" d="M-90.9,12.5c-0.4-2.8-0.6-5.7-0.8-8.6l-13.8,0.6"/>
		<path class="st3" d="M-98.4,23.1c0.3,1.4,0.7,2.8,1.1,4.2l-13.3,3.7"/>
		<path class="st3" d="M-98.4,23.1c-0.3-1.4-0.6-2.8-0.9-4.3l-48,9.1"/>
		<path class="st3" d="M-110.6,31.1c0.3,1.1,0.6,2.1,0.9,3.2l-52.9,16.5"/>
		<path class="st3" d="M-110.6,31.1c-0.3-1.1-0.6-2.1-0.8-3.2l-234.1,58.5"/>
		<path class="st3" d="M-105.4,4.6c0.1,2,0.2,4,0.4,6.1l-22.1,2.2"/>
		<path class="st3" d="M-105.4,4.6c-0.1-2-0.1-4.1-0.1-6.1l-21-0.3"/>
		<path class="st3" d="M-127.1,12.9c0.1,1.2,0.3,2.4,0.4,3.7l-29.2,3.8"/>
		<path class="st3" d="M-127.1,12.9c-0.1-1.2-0.2-2.4-0.3-3.7L-332.2,24"/>
		<path class="st3" d="M-126.5-1.8c0,1.2,0,2.4,0,3.6L-257,3.7"/>
		<path class="st3" d="M-126.5-1.8c0-1.2,0.1-2.4,0.1-3.6l-209.2-9.1"/>
		<path class="st3" d="M-83.6-14.6c-0.2,1.2-0.4,2.4-0.6,3.6l-6.5-0.9"/>
		<path class="st3" d="M-83.6-14.6c0.2-1.2,0.4-2.4,0.7-3.6l-103.3-22.7"/>
		<path class="st3" d="M-90.6-11.8c-0.1,0.9-0.2,1.7-0.3,2.6l-32.7-3.3"/>
		<path class="st3" d="M-90.6-11.8c0.1-0.9,0.2-1.7,0.4-2.6l-19.2-3.1"/>
		<path class="st3" d="M-69.9-21.8c-0.2,0.7-0.4,1.3-0.6,2l-24.7-6.9"/>
		<path class="st3" d="M-69.9-21.8c0.2-0.7,0.4-1.3,0.7-2l-25.2-8.7"/>
		<path class="st2" d="M-43.5-46.3c-1.4,1.3-2.7,2.7-4,4.1l-4.7-4.2"/>
		<path class="st3" d="M-43.5-46.3c1.4-1.3,2.9-2.6,4.4-3.8l-6.5-8.4"/>
		<path class="st2" d="M-52.2-46.3c-1.9,2.2-3.7,4.4-5.3,6.8l-8-5.5"/>
		<path class="st2" d="M-52.2-46.3c1.9-2.2,4-4.2,6.1-6.1l-11.2-12.7"/>
		<path class="st2" d="M-65.5-45c-1.8,2.6-3.4,5.3-4.9,8.1l-4.7-2.5"/>
		<path class="st2" d="M-65.5-45c1.8-2.6,3.7-5.1,5.8-7.5l-5.2-4.5"/>
		<path class="st2" d="M-75.1-39.4c-0.9,1.6-1.6,3.3-2.4,5l-7.2-3.2"/>
		<path class="st2" d="M-75.1-39.4c0.9-1.6,1.8-3.2,2.7-4.8l-10.7-6.5"/>
		<path class="st2" d="M-84.7-37.6c-0.4,0.8-0.7,1.6-1,2.5l-31-12.7"/>
		<path class="st3" d="M-84.7-37.6c0.4-0.8,0.7-1.6,1.1-2.4l-8.2-3.9"/>
		<path class="st2" d="M-83.1-50.7c-0.7,1.2-1.4,2.4-2.1,3.6L-97-53.6"/>
		<path class="st3" d="M-83.1-50.7c0.7-1.2,1.5-2.4,2.3-3.5l-11.4-7.7"/>
		<path class="st3" d="M-92.3-61.9c-0.6,0.9-1.2,1.8-1.7,2.7l-64.9-40.9"/>
		<path class="st3" d="M-92.3-61.9c0.6-0.9,1.2-1.8,1.8-2.6L-112.1-80"/>
		<path class="st2" d="M-64.9-57c-0.8,0.9-1.6,1.9-2.4,2.9l-7.8-6.3"/>
		<path class="st2" d="M-64.9-57c0.8-0.9,1.7-1.9,2.5-2.8l-5.9-5.6"/>
		<path class="st2" d="M-68.3-65.4c-0.6,0.7-1.2,1.3-1.9,2l-18.6-16.8"/>
		<path class="st3" d="M-68.3-65.4c0.6-0.7,1.3-1.3,1.9-1.9l-64.8-65.8"/>
		<path class="st3" d="M-28.3-43.6c-0.4,0.3-0.8,0.6-1.2,0.8l-9.3-13.4"/>
		<path class="st3" d="M-28.3-43.6c0.4-0.3,0.8-0.5,1.3-0.8l-73.5-120.5"/>
		<path class="st3" d="M-23.5-47.4c-0.5,0.2-0.9,0.5-1.4,0.7L-59.2-111"/>
		<path class="st3" d="M-23.5-47.4c0.5-0.2,0.9-0.4,1.4-0.7l-75.9-164.6"/>
		<path class="st3" d="M-11.2-32.6c-0.5,0.2-0.9,0.3-1.4,0.5l-6.5-16.6"/>
		<path class="st3" d="M-11.2-32.6c0.5-0.2,0.9-0.3,1.4-0.5l-6.3-21.3"/>
		<path class="st3" d="M-16.1-54.3c-0.5,0.2-1,0.3-1.6,0.5l-28.8-87.7"/>
		<path class="st3" d="M-16.1-54.3c0.5-0.2,1-0.3,1.6-0.4l-19.7-74.1"/>
		<path class="st3" d="M0-0.3C0-0.3,0-0.3,0-0.3l-3.1-35.9"/>
		<path class="st3" d="M0-0.3C0-0.3,0-0.3,0-0.3l-0.5-16"/>
	</g>
	<g>
		<text transform="matrix(2.881794e-02 -0.9996 0.9996 2.881794e-02 14.4964 -373.7374)" class="st4 st5">Proteobacteria [7550]</text>
		<text transform="matrix(8.635821e-02 -0.9963 0.9963 8.635821e-02 36.0041 -372.2812)" class="st4 st5">SAR324 [29]</text>
		<text transform="matrix(0.1436 -0.9896 0.9896 0.1436 57.3921 -369.5891)" class="st4 st5">UBP6 [4]</text>
		<text transform="matrix(0.2004 -0.9797 0.9797 0.2004 78.5895 -365.6686)" class="st4 st5">Myxococcota [77]</text>
		<text transform="matrix(0.2565 -0.9665 0.9665 0.2565 99.526 -360.5332)" class="st4 st5">Bdellovibrionota [67]</text>
		<text transform="matrix(0.3118 -0.9502 0.9502 0.3118 120.1315 -354.2007)" class="st4 st5">O2-12-FULL-43-9 [3]</text>
		<text transform="matrix(0.366 -0.9306 0.9306 0.366 140.3382 -346.6917)" class="st4 st5">Bdellovibrionota_A [2]</text>
		<text transform="matrix(0.419 -0.908 0.908 0.419 160.0789 -338.0307)" class="st4 st5">YA12-FULL-61-11*</text>
		<text transform="matrix(0.4706 -0.8823 0.8823 0.4706 179.2876 -328.2466)" class="st4 st5">UBA10199 [15]</text>
		<text transform="matrix(0.5207 -0.8538 0.8538 0.5207 197.9007 -317.3727)" class="st4 st5">Nitrospirota_A [8]</text>
		<text transform="matrix(0.569 -0.8224 0.8224 0.569 215.8565 -305.4441)" class="st4 st5">UBA2233*</text>
		<text transform="matrix(0.6154 -0.7882 0.7882 0.6154 233.0951 -292.5005)" class="st4 st5">Chrysiogenetes [2]</text>
		<text transform="matrix(0.6598 -0.7514 0.7514 0.6598 249.5595 -278.5858)" class="st4 st5">CG2-30-70-394*</text>
		<text transform="matrix(0.702 -0.7122 0.7122 0.702 265.1948 -263.7451)" class="st4 st5">Desulfobacterota [315]</text>
		<text transform="matrix(0.7419 -0.6706 0.6706 0.7419 279.9492 -248.0285)" class="st4 st5">Desulfuromonadota [73]</text>
		<text transform="matrix(0.7793 -0.6267 0.6267 0.7793 293.7737 -231.4881)" class="st4 st5">GWC2-55-46 [21]</text>
		<text transform="matrix(0.8141 -0.5808 0.5808 0.8141 306.6222 -214.1787)" class="st4 st5">UBP10 [14]</text>
		<text transform="matrix(0.8462 -0.5329 0.5329 0.8462 318.4522 -196.1579)" class="st4 st5">MBNT15 [8]</text>
		<text transform="matrix(0.8755 -0.4833 0.4833 0.8755 329.2245 -177.4856)" class="st4 st5">Deferrisomatota*</text>
		<text transform="matrix(0.9019 -0.432 0.432 0.9019 338.9028 -158.2236)" class="st4 st5">Bacteria-domain** [2]</text>
		<text transform="matrix(0.9253 -0.3794 0.3794 0.9253 347.4555 -138.4359)" class="st4 st5">Desulfobacterota_B [15]</text>
		<text transform="matrix(0.9456 -0.3254 0.3254 0.9456 354.8539 -118.1884)" class="st4 st5">Dadabacteria [6]</text>
		<text transform="matrix(0.9627 -0.2704 0.2704 0.9627 361.0737 -97.5482)" class="st4 st5">Nitrospirota [77]</text>
		<text transform="matrix(0.9767 -0.2145 0.2145 0.9767 366.0939 -76.584)" class="st4 st5">CG2-30-53-67*</text>
		<text transform="matrix(0.9875 -0.1579 0.1579 0.9875 369.8979 -55.3655)" class="st4 st5">Nitrospinota [20]</text>
		<text transform="matrix(0.9949 -0.1007 0.1007 0.9949 372.4733 -33.9629)" class="st4 st5">Schekmanbacteria [3]</text>
		<text transform="matrix(0.9991 -4.321946e-02 4.321946e-02 0.9991 373.8113 -12.4475)" class="st4 st5">Methylomirabilota [34]</text>
		<text transform="matrix(0.9999 1.441048e-02 -1.441048e-02 0.9999 373.9075 9.1091)" class="st4 st5">Modulibacteria [2]</text>
		<text transform="matrix(0.9974 7.199255e-02 -7.199255e-02 0.9974 372.7617 30.6355)" class="st4 st5">Hydrogenedentes [5]</text>
		<text transform="matrix(0.9916 0.1293 -0.1293 0.9916 370.3776 52.0603)" class="st4 st5">OLB16*</text>
		<text transform="matrix(0.9825 0.1862 -0.1862 0.9825 366.7631 73.3119)" class="st4 st5">Poribacteria [3]</text>
		<text transform="matrix(0.9701 0.2425 -0.2425 0.9701 361.9304 94.3201)" class="st4 st5">Entotheonellota*</text>
		<text transform="matrix(0.9546 0.298 -0.298 0.9546 355.8952 115.0151)" class="st4 st5">Acidobacteria [133]</text>
		<text transform="matrix(0.9358 0.3525 -0.3525 0.9358 348.678 135.3277)" class="st4 st5">Epsilonbacterota [280]</text>
		<text transform="matrix(0.9139 0.4059 -0.4059 0.9139 340.302 155.1911)" class="st4 st5">Aquificae [24]</text>
		<text transform="matrix(0.889 0.4578 -0.4578 0.889 330.7963 174.5388)" class="st4 st5">Deferribacteres [12]</text>
		<text transform="matrix(0.8612 0.5083 -0.5083 0.8612 320.1909 193.3066)" class="st4 st5">Thermosulfidibacterota*</text>
		<text transform="matrix(0.8305 0.5571 -0.5571 0.8305 308.5223 211.4324)" class="st4 st5">Dependentiae [27]</text>
		<text transform="matrix(0.797 0.604 -0.604 0.797 295.8289 228.8559)" class="st4 st5">Bacteroidetes [2593]</text>
		<text transform="matrix(0.7609 0.6489 -0.6489 0.7609 282.1531 245.519)" class="st4 st5">KSB1 [6]</text>
		<text transform="matrix(0.7222 0.6917 -0.6917 0.7222 267.5392 261.3667)" class="st4 st5">Bacteria-domain** [2]</text>
		<text transform="matrix(0.6812 0.7321 -0.7321 0.6812 252.0376 276.3459)" class="st4 st5">Calditrichota [4]</text>
		<text transform="matrix(0.6379 0.7701 -0.7701 0.6379 235.6977 290.4075)" class="st4 st5">Marinimicrobia [61]</text>
		<text transform="matrix(0.5924 0.8056 -0.8056 0.5924 218.5751 303.504)" class="st4 st5">Fibrobacteres [41]</text>
		<text transform="matrix(0.545 0.8384 -0.8384 0.545 200.7265 315.5925)" class="st4 st5">Delongbacteria [3]</text>
		<text transform="matrix(0.4958 0.8684 -0.8684 0.4958 182.2112 326.6327)" class="st4 st5">Cloacimonetes [32]</text>
		<text transform="matrix(0.445 0.8955 -0.8955 0.445 163.0908 336.5874)" class="st4 st5">Gemmatimonadetes [49]</text>
		<text transform="matrix(0.3926 0.9197 -0.9197 0.3926 143.4281 345.4246)" class="st4 st5">Latescibacteria [10]</text>
		<text transform="matrix(0.339 0.9408 -0.9408 0.339 123.2897 353.114)" class="st4 st5">Zixibacteria [10]</text>
		<text transform="matrix(0.2842 0.9588 -0.9588 0.2842 102.7415 359.6305)" class="st4 st5">UBP14 [2]</text>
		<text transform="matrix(0.2285 0.9735 -0.9735 0.2285 81.8519 364.9523)" class="st4 st5">Edwardsbacteria [8]</text>
		<text transform="matrix(0.1721 0.9851 -0.9851 0.1721 60.6903 369.0617)" class="st4 st5">Eisenbacteria [5]</text>
		<text transform="matrix(0.115 0.9934 -0.9934 0.115 39.3273 371.9452)" class="st4 st5">TA06 [4]</text>
		<text transform="matrix(5.761194e-02 0.9983 -0.9983 5.761194e-02 17.8328 373.5931)" class="st4 st5">4572-55*</text>
		<text transform="matrix(6.123234e-17 -1 1 6.123234e-17 3.72 437.3457)" class="st4 st5">WOR-3 [15]</text>
		<text transform="matrix(5.761194e-02 -0.9983 0.9983 5.761194e-02 -23.4438 470.8204)" class="st4 st5">Aegiribacterota [9]</text>
		<text transform="matrix(0.115 -0.9934 0.9934 0.115 -48.8406 454.1015)" class="st4 st5">RBG-13-66-14*</text>
		<text transform="matrix(0.1721 -0.9851 0.9851 0.1721 -80.775 484.0455)" class="st4 st5">Verrucomicrobia [348]</text>
		<text transform="matrix(0.2285 -0.9735 0.9735 0.2285 -108.071 476.6422)" class="st4 st5">Planctomycetes [182]</text>
		<text transform="matrix(0.2842 -0.9588 0.9588 0.2842 -131.1848 455.5688)" class="st4 st5">Spirochaetes [252]</text>
		<text transform="matrix(0.339 -0.9408 0.9408 0.339 -155.3976 442.2159)" class="st4 st5">Omnitrophica [78]</text>
		<text transform="matrix(0.3926 -0.9197 0.9197 0.3926 -162.2848 389.5914)" class="st4 st5">UBP3 [2]</text>
		<text transform="matrix(0.445 -0.8955 0.8955 0.445 -188.0272 386.7729)" class="st4 st5">UBA3054*</text>
		<text transform="matrix(0.4958 -0.8684 0.8684 0.4958 -209.9976 375.2981)" class="st4 st5">UBA1439*</text>
		<text transform="matrix(0.545 -0.8384 0.8384 0.545 -252.3451 394.9938)" class="st4 st5">Elusimicrobia [64]</text>
		<text transform="matrix(0.5924 -0.8056 0.8056 0.5924 -283.3814 391.6295)" class="st4 st5">Firestonebacteria [2]</text>
		<text transform="matrix(0.6379 -0.7701 0.7701 0.6379 -303.3466 372.085)" class="st4 st5">Desantisbacteria [4]</text>
		<text transform="matrix(0.6812 -0.7321 0.7321 0.6812 -290.2096 317.373)" class="st4 st5">UBA7526*</text>
		<text transform="matrix(0.7222 -0.6917 0.6917 0.7222 -354.2572 344.4142)" class="st4 st5">Desantisbacteria_A [3]</text>
		<text transform="matrix(0.7609 -0.6489 0.6489 0.7609 -333.9264 289.6734)" class="st4 st5">UBA8481 [2]</text>
		<text transform="matrix(0.797 -0.604 0.604 0.797 -375.0304 288.8772)" class="st4 st5">O2-12-FULL-62-2*</text>
		<text transform="matrix(0.8305 -0.5571 0.5571 0.8305 -348.4044 238.1848)" class="st4 st5">UBP4 [2]</text>
		<text transform="matrix(0.8612 -0.5083 0.5083 0.8612 -368.4509 221.7912)" class="st4 st5">UBA8349*</text>
		<text transform="matrix(0.889 -0.4578 0.4578 0.889 -404.9177 212.7102)" class="st4 st5">Riflebacteria [3]</text>
		<text transform="matrix(0.9139 -0.4059 0.4059 0.9139 -391.5184 177.935)" class="st4 st5">UBA6191*</text>
		<text transform="matrix(0.9358 -0.3525 0.3525 0.9358 -425.6509 164.3248)" class="st4 st5">Wallbacteria [3]</text>
		<text transform="matrix(0.9546 -0.298 0.298 0.9546 -446.3132 143.2454)" class="st4 st5">Thermotogae [66]</text>
		<text transform="matrix(0.9701 -0.2425 0.2425 0.9701 -458.3437 118.4242)" class="st4 st5">Calescamantes [3]</text>
		<text transform="matrix(0.9825 -0.1862 0.1862 0.9825 -413.9464 82.2563)" class="st4 st5">UBP7 [3]</text>
		<text transform="matrix(0.9916 -0.1293 0.1293 0.9916 -445.7703 61.8937)" class="st4 st5">Caldiserica [6]</text>
		<text transform="matrix(0.9974 -7.199242e-02 7.199242e-02 0.9974 -509.1472 40.4798)" class="st4 st5">Coprothermobacterota [3]</text>
		<text transform="matrix(0.9999 -1.441040e-02 1.441040e-02 0.9999 -452.5908 10.2431)" class="st4 st5">Dictyoglomi [3]</text>
		<text transform="matrix(0.9991 4.321949e-02 -4.321949e-02 0.9991 -484.4383 -17.2333)" class="st4 st5">Thermodesulfobiota*</text>
		<text transform="matrix(0.9949 0.1007 -0.1007 0.9949 -468.0377 -43.636)" class="st4 st5">Synergistetes [56]</text>
		<text transform="matrix(0.9875 0.1579 -0.1579 0.9875 -452.8853 -68.6319)" class="st4 st5">Atribacteria [14]</text>
		<text transform="matrix(0.9767 0.2145 -0.2145 0.9767 -455.3671 -96.188)" class="st4 st5">Aerophobetes [2]</text>
		<text transform="matrix(0.9627 0.2704 -0.2704 0.9627 -464.4752 -126.5898)" class="st4 st5">Cyanobacteria [433]</text>
		<text transform="matrix(0.9456 0.3254 -0.3254 0.9456 -460.1781 -154.4354)" class="st4 st5">Margulisbacteria [31]</text>
		<text transform="matrix(0.9253 0.3794 -0.3794 0.9253 -432.6096 -173.3489)" class="st4 st5">Firmicutes [2581]</text>
		<text transform="matrix(0.9019 0.432 -0.432 0.9019 -423.7008 -198.8452)" class="st4 st5">Firmicutes_D [22]</text>
		<text transform="matrix(0.8755 0.4833 -0.4833 0.8755 -422.067 -228.7357)" class="st4 st5">Firmicutes_A [2075]</text>
		<text transform="matrix(0.8462 0.5329 -0.5329 0.8462 -396.9087 -245.5681)" class="st4 st5">Fusobacteria [72]</text>
		<text transform="matrix(0.8141 0.5808 -0.5808 0.8141 -382.0777 -268.0101)" class="st4 st5">Firmicutes_F [18]</text>
		<text transform="matrix(0.7793 0.6267 -0.6267 0.7793 -371.7282 -294.182)" class="st4 st5">Firmicutes_B [186]</text>
		<text transform="matrix(0.7419 0.6706 -0.6706 0.7419 -354.6539 -315.5533)" class="st4 st5">Firmicutes_C [173]</text>
		<text transform="matrix(0.702 0.7122 -0.7122 0.702 -299.8404 -298.8939)" class="st4 st5">DTU030*</text>
		<text transform="matrix(0.6598 0.7514 -0.7514 0.6598 -311.1601 -348.7427)" class="st4 st5">Firmicutes_E [21]</text>
		<text transform="matrix(0.6154 0.7882 -0.7882 0.6154 -291.3705 -367.1384)" class="st4 st5">Firmicutes_G [46]</text>
		<text transform="matrix(0.569 0.8224 -0.8224 0.569 -282.6505 -401.982)" class="st4 st5">Armatimonadetes [28]</text>
		<text transform="matrix(0.5207 0.8538 -0.8538 0.5207 -227.0773 -365.2167)" class="st4 st5">UBA5359*</text>
		<text transform="matrix(0.4706 0.8823 -0.8823 0.4706 -220.395 -405.321)" class="st4 st5">Firmicutes_H [4]</text>
		<text transform="matrix(0.419 0.908 -0.908 0.419 -183.5583 -388.9135)" class="st4 st5">UBA5184*</text>
		<text transform="matrix(0.366 0.9306 -0.9306 0.366 -181.5994 -451.6101)" class="st4 st5">Actinobacteria [3200]</text>
		<text transform="matrix(0.3118 0.9502 -0.9502 0.3118 -150.0782 -445.4719)" class="st4 st5">Deinococcota [69]</text>
		<text transform="matrix(0.2565 0.9665 -0.9665 0.2565 -123.6494 -451.4359)" class="st4 st5">Acetothermia [16]</text>
		<text transform="matrix(0.2004 0.9797 -0.9797 0.2004 -89.5469 -419.2392)" class="st4 st5">WPS-2 [9]</text>
		<text transform="matrix(0.1436 0.9896 -0.9896 0.1436 -64.0981 -415.7984)" class="st4 st5">AD3 [12]</text>
		<text transform="matrix(8.635821e-02 0.9963 -0.9963 8.635821e-02 -46.2588 -490.5782)" class="st4 st5">Patescibacteria [1840]</text>
		<text transform="matrix(2.881780e-02 0.9996 -0.9996 2.881780e-02 -16.9943 -460.4143)" class="st4 st5">Chloroflexi [294]</text>
	</g>
	<g>
		<circle class="st6" cx="0" cy="0" r="2"/>
		<circle class="st6" cx="-2" cy="-7.9" r="2"/>
		<circle class="st6" cx="-7.1" cy="-19.4" r="2"/>
		<circle class="st6" cx="-13" cy="-23.6" r="2"/>
		<circle class="st6" cx="-20.6" cy="-25.6" r="2"/>
		<circle class="st6" cx="-31.2" cy="-25.2" r="2"/>
		<circle class="st6" cx="-44.2" cy="-16.9" r="2"/>
		<circle class="st6" cx="-57.7" cy="5" r="2"/>
		<circle class="st6" cx="-59" cy="30.5" r="2"/>
		<circle class="st6" cx="-40.4" cy="59.2" r="2"/>
		<circle class="st6" cx="-2.5" cy="79.5" r="2"/>
		<circle class="st6" cx="54.5" cy="64.6" r="2"/>
		<circle class="st6" cx="92.1" cy="14.5" r="2"/>
		<circle class="st6" cx="100.2" cy="-20.9" r="2"/>
		<circle class="st6" cx="82.5" cy="-71.6" r="2"/>
		<circle class="st6" cx="48.2" cy="-104.6" r="2"/>
		<circle class="st6" cx="27.8" cy="-118.9" r="2"/>
		<circle class="st6" cx="9.7" cy="-134.6" r="2"/>
		<circle class="st6" cx="17.5" cy="-151.4" r="2"/>
		<circle class="st6" cx="49.1" cy="-120.3" r="2"/>
		<circle class="st6" cx="38.8" cy="-132.5" r="2"/>
		<circle class="st6" cx="52.3" cy="-135.8" r="2"/>
		<circle class="st6" cx="46" cy="-147.3" r="2"/>
		<circle class="st6" cx="57.7" cy="-160.2" r="2"/>
		<circle class="st6" cx="74.4" cy="-101.1" r="2"/>
		<circle class="st6" cx="84.1" cy="-129.4" r="2"/>
		<circle class="st6" cx="89.9" cy="-108.5" r="2"/>
		<circle class="st6" cx="113.4" cy="-33.8" r="2"/>
		<circle class="st6" cx="110.4" cy="-64.8" r="2"/>
		<circle class="st6" cx="102.6" cy="-86.6" r="2"/>
		<circle class="st6" cx="115.5" cy="-80.6" r="2"/>
		<circle class="st6" cx="114.8" cy="-97.9" r="2"/>
		<circle class="st6" cx="129.4" cy="-72.6" r="2"/>
		<circle class="st6" cx="130.7" cy="-85" r="2"/>
		<circle class="st6" cx="148" cy="-87.4" r="2"/>
		<circle class="st6" cx="135" cy="-50.9" r="2"/>
		<circle class="st6" cx="125.4" cy="-6.1" r="2"/>
		<circle class="st6" cx="129.2" cy="-24.5" r="2"/>
		<circle class="st6" cx="137.9" cy="-34.5" r="2"/>
		<circle class="st6" cx="139.7" cy="-18.2" r="2"/>
		<circle class="st6" cx="133.1" cy="12" r="2"/>
		<circle class="st6" cx="142.7" cy="-2.1" r="2"/>
		<circle class="st6" cx="149.3" cy="29.4" r="2"/>
		<circle class="st6" cx="165.1" cy="24" r="2"/>
		<circle class="st6" cx="185.3" cy="18.8" r="2"/>
		<circle class="st6" cx="92.7" cy="52.9" r="2"/>
		<circle class="st6" cx="105.3" cy="50.4" r="2"/>
		<circle class="st6" cx="117.6" cy="48.2" r="2"/>
		<circle class="st6" cx="117.3" cy="64.7" r="2"/>
		<circle class="st6" cx="-1.3" cy="93" r="2"/>
		<circle class="st6" cx="22.7" cy="103" r="2"/>
		<circle class="st6" cx="53.7" cy="104" r="2"/>
		<circle class="st6" cx="71" cy="102.8" r="2"/>
		<circle class="st6" cx="83.9" cy="101.6" r="2"/>
		<circle class="st6" cx="101.8" cy="104" r="2"/>
		<circle class="st6" cx="117.2" cy="101.4" r="2"/>
		<circle class="st6" cx="117.9" cy="116.2" r="2"/>
		<circle class="st6" cx="131" cy="118.4" r="2"/>
		<circle class="st6" cx="87.1" cy="125.9" r="2"/>
		<circle class="st6" cx="42.6" cy="116.8" r="2"/>
		<circle class="st6" cx="30.8" cy="127.2" r="2"/>
		<circle class="st6" cx="44.8" cy="130.2" r="2"/>
		<circle class="st6" cx="53.5" cy="136" r="2"/>
		<circle class="st6" cx="20.1" cy="138.8" r="2"/>
		<circle class="st6" cx="30.1" cy="147.2" r="2"/>
		<circle class="st6" cx="13.1" cy="151.6" r="2"/>
		<circle class="st6" cx="-5.1" cy="117.6" r="2"/>
		<circle class="st6" cx="-12.4" cy="143.1" r="2"/>
		<circle class="st6" cx="-24.8" cy="99" r="2"/>
		<circle class="st6" cx="-24.1" cy="118.1" r="2"/>
		<circle class="st6" cx="-59.6" cy="62.5" r="2"/>
		<circle class="st6" cx="-51.6" cy="80" r="2"/>
		<circle class="st6" cx="-44.2" cy="101.6" r="2"/>
		<circle class="st6" cx="-57" cy="110.8" r="2"/>
		<circle class="st6" cx="-59.9" cy="129.9" r="2"/>
		<circle class="st6" cx="-68.6" cy="75.9" r="2"/>
		<circle class="st6" cx="-68.4" cy="87.6" r="2"/>
		<circle class="st6" cx="-68.2" cy="98.6" r="2"/>
		<circle class="st6" cx="-84.5" cy="96.2" r="2"/>
		<circle class="st6" cx="-81.3" cy="58" r="2"/>
		<circle class="st6" cx="-103.4" cy="83.2" r="2"/>
		<circle class="st6" cx="-103.3" cy="65.1" r="2"/>
		<circle class="st6" cx="-102.2" cy="43.6" r="2"/>
		<circle class="st6" cx="-121.7" cy="58.3" r="2"/>
		<circle class="st6" cx="-77.3" cy="-1.4" r="2"/>
		<circle class="st6" cx="-90.9" cy="12.5" r="2"/>
		<circle class="st6" cx="-98.4" cy="23.1" r="2"/>
		<circle class="st6" cx="-110.6" cy="31.1" r="2"/>
		<circle class="st6" cx="-105.4" cy="4.6" r="2"/>
		<circle class="st6" cx="-127.1" cy="12.9" r="2"/>
		<circle class="st6" cx="-126.5" cy="-1.8" r="2"/>
		<circle class="st6" cx="-83.6" cy="-14.6" r="2"/>
		<circle class="st6" cx="-90.6" cy="-11.8" r="2"/>
		<circle class="st6" cx="-69.9" cy="-21.8" r="2"/>
		<circle class="st6" cx="-43.5" cy="-46.3" r="2"/>
		<circle class="st6" cx="-52.2" cy="-46.3" r="2"/>
		<circle class="st6" cx="-65.5" cy="-45" r="2"/>
		<circle class="st6" cx="-75.1" cy="-39.4" r="2"/>
		<circle class="st6" cx="-84.7" cy="-37.6" r="2"/>
		<circle class="st6" cx="-83.1" cy="-50.7" r="2"/>
		<circle class="st6" cx="-92.3" cy="-61.9" r="2"/>
		<circle class="st6" cx="-64.9" cy="-57" r="2"/>
		<circle class="st6" cx="-68.3" cy="-65.4" r="2"/>
		<circle class="st6" cx="-28.3" cy="-43.6" r="2"/>
		<circle class="st6" cx="-23.5" cy="-47.4" r="2"/>
		<circle class="st6" cx="-11.2" cy="-32.6" r="2"/>
		<circle class="st6" cx="-16.1" cy="-54.3" r="2"/>
		<circle class="st6" cx="0" cy="-0.3" r="2"/>
	</g>
</g>
</svg>
